<?xml version="1.0" encoding="UTF-8" standalone="yes"?><svg xmlns="http://www.w3.org/2000/svg" xmlns:xlink="http://www.w3.org/1999/xlink" height="490pt" style="width:570px;height:490px;" version="1.1" viewBox="0 0 570 490" width="570pt"><defs><filter height="300%" id="f1" width="300%" x="-1" y="-1"><feGaussianBlur result="blurOut" stdDeviation="2.0"/><feColorMatrix in="blurOut" result="blurOut2" type="matrix" values="0 0 0 0 0 0 0 0 0 0 0 0 0 0 0 0 0 0 .4 0"/><feOffset dx="4.0" dy="4.0" in="blurOut2" result="blurOut3"/><feBlend in="SourceGraphic" in2="blurOut3" mode="normal"/></filter></defs><g><text fill="#000000" font-family="Helvetica Neue" font-size="18" lengthAdjust="spacingAndGlyphs" textLength="64" x="262.5" y="17.64">Classes</text><rect fill="#FEFECE" filter="url(#f1)" height="38.246" style="stroke: #A80036; stroke-width: 1.5;" width="166" x="6" y="43.974"/><text fill="#000000" font-family="Helvetica Neue" font-size="12" lengthAdjust="spacingAndGlyphs" textLength="64" x="57" y="57.734">Deployment</text><line style="stroke: #A80036; stroke-width: 1.5;" x1="7" x2="171" y1="62.29" y2="62.29"/><text fill="#000000" font-family="Helvetica Neue" font-size="10" lengthAdjust="spacingAndGlyphs" textLength="154" x="12" y="76.09">A particular deployment of a stack.</text><rect fill="#FEFECE" filter="url(#f1)" height="50.176" style="stroke: #A80036; stroke-width: 1.5;" width="167" x="255.5" y="37.974"/><text fill="#000000" font-family="Helvetica Neue" font-size="12" lengthAdjust="spacingAndGlyphs" textLength="30" x="324" y="51.734">Stack</text><line style="stroke: #A80036; stroke-width: 1.5;" x1="256.5" x2="421.5" y1="56.29" y2="56.29"/><text fill="#000000" font-family="Helvetica Neue" font-size="10" lengthAdjust="spacingAndGlyphs" textLength="155" x="261.5" y="70.09">Composable and sharable piece of</text><text fill="#000000" font-family="Helvetica Neue" font-size="10" lengthAdjust="spacingAndGlyphs" textLength="105" x="261.5" y="82.02">infrastructure definition.</text><rect fill="#FEFECE" filter="url(#f1)" height="50.176" style="stroke: #A80036; stroke-width: 1.5;" width="179" x="222.5" y="173.474"/><text fill="#000000" font-family="Helvetica Neue" font-size="12" lengthAdjust="spacingAndGlyphs" textLength="56" x="284" y="187.234">Resources</text><line style="stroke: #A80036; stroke-width: 1.5;" x1="223.5" x2="400.5" y1="191.79" y2="191.79"/><text fill="#000000" font-family="Helvetica Neue" font-size="10" lengthAdjust="spacingAndGlyphs" textLength="156" x="228.5" y="205.59">A Foreman object to be configured</text><text fill="#000000" font-family="Helvetica Neue" font-size="10" lengthAdjust="spacingAndGlyphs" textLength="167" x="228.5" y="217.52">or created to form an deployed stack.</text><rect fill="#FEFECE" filter="url(#f1)" height="62.106" style="stroke: #A80036; stroke-width: 1.5;" width="174" x="107" y="419.474"/><text fill="#000000" font-family="Helvetica Neue" font-size="12" lengthAdjust="spacingAndGlyphs" textLength="88" x="150" y="433.234">ForemanObjects</text><line style="stroke: #A80036; stroke-width: 1.5;" x1="108" x2="280" y1="437.79" y2="437.79"/><text fill="#000000" font-family="Helvetica Neue" font-size="10" lengthAdjust="spacingAndGlyphs" textLength="148" x="113" y="451.59">Any Foreman object created for a</text><text fill="#000000" font-family="Helvetica Neue" font-size="10" lengthAdjust="spacingAndGlyphs" textLength="162" x="113" y="463.52">Deployment. Like: Host, Hostgroup,</text><text fill="#000000" font-family="Helvetica Neue" font-size="10" lengthAdjust="spacingAndGlyphs" textLength="95" x="113" y="475.45">GroupParameter, etc.</text><rect fill="#FEFECE" filter="url(#f1)" height="74.036" style="stroke: #A80036; stroke-width: 1.5;" width="168" x="110" y="284.474"/><text fill="#000000" font-family="Helvetica Neue" font-size="12" lengthAdjust="spacingAndGlyphs" textLength="138" x="125" y="298.234">DeployedForemanObjects</text><line style="stroke: #A80036; stroke-width: 1.5;" x1="111" x2="277" y1="302.79" y2="302.79"/><text fill="#000000" font-family="Helvetica Neue" font-size="10" lengthAdjust="spacingAndGlyphs" textLength="141" x="116" y="316.59">Association entities. Represents</text><text fill="#000000" font-family="Helvetica Neue" font-size="10" lengthAdjust="spacingAndGlyphs" textLength="156" x="116" y="328.52">ForemanObjects deployed in given</text><text fill="#000000" font-family="Helvetica Neue" font-size="10" lengthAdjust="spacingAndGlyphs" textLength="118" x="116" y="340.45">Deployment fulfilling given</text><text fill="#000000" font-family="Helvetica Neue" font-size="10" lengthAdjust="spacingAndGlyphs" textLength="45" x="116" y="352.38">Resource.</text><path d="M185.274,62.974 C203.934,62.974 223.496,62.974 242.174,62.974 " fill="none" style="stroke: #A80036; stroke-width: 1.0;"/><polygon fill="#A80036" points="255.265,62.974,246.265,58.974,250.265,62.974,246.265,66.974,255.265,62.974" style="stroke: #A80036; stroke-width: 1.0;"/><line style="stroke: #A80036; stroke-width: 1.0;" x1="250.265" x2="242.265" y1="62.974" y2="62.974"/><polygon fill="none" points="172.246,62.974,178.246,66.974,184.246,62.974,178.246,58.974,172.246,62.974" style="stroke: #A80036; stroke-width: 1.0;"/><text fill="#000000" font-family="Helvetica Neue" font-size="13" lengthAdjust="spacingAndGlyphs" textLength="47" x="190.25" y="56.714">deploys</text><text fill="#000000" font-family="Helvetica Neue" font-size="13" lengthAdjust="spacingAndGlyphs" textLength="20" x="179.9679" y="76.346">0..*</text><text fill="#000000" font-family="Helvetica Neue" font-size="13" lengthAdjust="spacingAndGlyphs" textLength="7" x="240.4956" y="60.0609">1</text><path d="M422.603,49.712 C442.648,50.749 457.5,55.169 457.5,62.974 C457.5,70.108 445.091,74.415 427.65,75.894 " fill="none" style="stroke: #A80036; stroke-width: 1.0;"/><polygon fill="#A80036" points="422.603,76.236,431.8533,79.6172,427.5915,75.8973,431.3114,71.6356,422.603,76.236" style="stroke: #A80036; stroke-width: 1.0;"/><text fill="#000000" font-family="Helvetica Neue" font-size="13" lengthAdjust="spacingAndGlyphs" textLength="71" x="478.5" y="48.214">has children</text><polygon fill="#FBFB77" filter="url(#f1)" points="462.5,61.983,462.5,86.983,561.5,86.983,561.5,71.983,551.5,61.983,462.5,61.983" style="stroke: #A80036; stroke-width: 1.0;"/><line style="stroke: #A80036; stroke-width: 1.0;" x1="551.5" x2="551.5" y1="61.983" y2="71.983"/><line style="stroke: #A80036; stroke-width: 1.0;" x1="561.5" x2="551.5" y1="71.983" y2="71.983"/><text fill="#000000" font-family="Helvetica Neue" font-size="13" lengthAdjust="spacingAndGlyphs" textLength="78" x="468.5" y="79.723">acyclic graph</text><text fill="#000000" font-family="Helvetica Neue" font-size="13" lengthAdjust="spacingAndGlyphs" textLength="20" x="430.3545" y="45.7464">0..*</text><text fill="#000000" font-family="Helvetica Neue" font-size="13" lengthAdjust="spacingAndGlyphs" textLength="20" x="430.3545" y="74.467">0..*</text><path d="M331.533,100.894 C327.808,119.314 323.311,141.549 319.571,160.039 " fill="none" style="stroke: #A80036; stroke-width: 1.0;"/><polygon fill="#A80036" points="316.944,173.027,322.6489,164.9986,317.9353,168.1262,314.8076,163.4126,316.944,173.027" style="stroke: #A80036; stroke-width: 1.0;"/><line style="stroke: #A80036; stroke-width: 1.0;" x1="317.9353" x2="319.5215" y1="168.1262" y2="160.285"/><polygon fill="#A80036" points="334.111,88.15,329.0009,93.2379,331.732,99.9118,336.8421,94.8239,334.111,88.15" style="stroke: #A80036; stroke-width: 1.0;"/><text fill="#000000" font-family="Helvetica Neue" font-size="13" lengthAdjust="spacingAndGlyphs" textLength="91" x="327" y="140.214">is composed of</text><text fill="#000000" font-family="Helvetica Neue" font-size="13" lengthAdjust="spacingAndGlyphs" textLength="7" x="325.0662" y="108.8954">1</text><text fill="#000000" font-family="Helvetica Neue" font-size="13" lengthAdjust="spacingAndGlyphs" textLength="20" x="295.7116" y="162.7768">1..*</text><path d="M279.169,233.14 C266.537,246.093 251.898,261.104 238.357,274.989 " fill="none" style="stroke: #A80036; stroke-width: 1.0;"/><polygon fill="#A80036" points="229.197,284.383,236.2497,282.8799,237.5748,275.7916,230.5221,277.2947,229.197,284.383" style="stroke: #A80036; stroke-width: 1.0;"/><polygon fill="#A80036" points="288.405,223.669,279.2578,227.32,284.9143,227.2488,284.9855,232.9052,288.405,223.669" style="stroke: #A80036; stroke-width: 1.0;"/><line style="stroke: #A80036; stroke-width: 1.0;" x1="284.9143" x2="279.3285" y1="227.2488" y2="232.9765"/><text fill="#000000" font-family="Helvetica Neue" font-size="13" lengthAdjust="spacingAndGlyphs" textLength="7" x="274.8006" y="244.419">1</text><text fill="#000000" font-family="Helvetica Neue" font-size="13" lengthAdjust="spacingAndGlyphs" textLength="20" x="214.0002" y="273.6679">0..*</text><path d="M101.3532,94.151 C119.308,138.013 152.804,219.837 174.219,272.153 " fill="none" style="stroke: #A80036; stroke-width: 1.0;"/><polygon fill="#A80036" points="179.255,284.454,180.6835,277.3858,174.7084,273.3487,173.2799,280.4169,179.255,284.454" style="stroke: #A80036; stroke-width: 1.0;"/><polygon fill="#A80036" points="96.3834,82.011,96.0907,91.8555,98.2774,86.6384,103.4945,88.8251,96.3834,82.011" style="stroke: #A80036; stroke-width: 1.0;"/><line style="stroke: #A80036; stroke-width: 1.0;" x1="98.2774" x2="101.3085" y1="86.6384" y2="94.0415"/><text fill="#000000" font-family="Helvetica Neue" font-size="13" lengthAdjust="spacingAndGlyphs" textLength="7" x="90.5727" y="102.9182">1</text><text fill="#000000" font-family="Helvetica Neue" font-size="13" lengthAdjust="spacingAndGlyphs" textLength="20" x="154.538" y="273.7525">0..*</text><path d="M194,371.635 C194,383.0686 194,395.1566 194,406.309 " fill="none" style="stroke: #A80036; stroke-width: 1.0;"/><polygon fill="#A80036" points="194,419.3416,198,410.3416,194,414.3416,190,410.3416,194,419.3416" style="stroke: #A80036; stroke-width: 1.0;"/><line style="stroke: #A80036; stroke-width: 1.0;" x1="194" x2="194" y1="414.3416" y2="406.3415"/><polygon fill="#A80036" points="194,358.527,190,364.527,194,370.527,198,364.527,194,358.527" style="stroke: #A80036; stroke-width: 1.0;"/><text fill="#000000" font-family="Helvetica Neue" font-size="13" lengthAdjust="spacingAndGlyphs" textLength="20" x="172.2188" y="379.2451">0..*</text><text fill="#000000" font-family="Helvetica Neue" font-size="13" lengthAdjust="spacingAndGlyphs" textLength="7" x="186.2344" y="408.6748">1</text></g></svg>